<svg width="960" height="600" viewBox="0 0 960 600" fill="none" xmlns="http://www.w3.org/2000/svg">
  <rect width="960" height="600" fill="#0A0A0F"/>
  <defs>
    <pattern id="grid" width="40" height="40" patternUnits="userSpaceOnUse">
      <path d="M 40 0 L 0 0 0 40" fill="none" stroke="rgba(124,92,255,0.08)" stroke-width="1"/>
    </pattern>
    <linearGradient id="violet" x1="0" y1="0" x2="1" y2="1">
      <stop stop-color="#DAFF3D"/>
      <stop offset="1" stop-color="#A8D400"/>
    </linearGradient>
  </defs>
  <rect width="960" height="600" fill="url(#grid)"/>
  <text x="48" y="72" fill="#6C7182" font-family="system-ui,sans-serif" font-size="11" letter-spacing="0.2em">CLIENTS</text>
  <rect x="80" y="88" width="220" height="72" rx="12" stroke="#23252F" fill="#12131A"/>
  <text x="190" y="132" fill="#E7E8EE" font-family="system-ui,sans-serif" font-size="14" text-anchor="middle">Web UI</text>
  <rect x="370" y="88" width="220" height="72" rx="12" stroke="#23252F" fill="#12131A"/>
  <text x="480" y="132" fill="#E7E8EE" font-family="system-ui,sans-serif" font-size="14" text-anchor="middle">CLI</text>
  <rect x="660" y="88" width="220" height="72" rx="12" stroke="#23252F" fill="#12131A"/>
  <text x="770" y="132" fill="#E7E8EE" font-family="system-ui,sans-serif" font-size="14" text-anchor="middle">Channels</text>
  <path d="M190 160 L480 220" stroke="url(#violet)" stroke-width="2" opacity="0.6"/>
  <path d="M480 160 L480 220" stroke="url(#violet)" stroke-width="2" opacity="0.6"/>
  <path d="M770 160 L480 220" stroke="url(#violet)" stroke-width="2" opacity="0.6"/>
  <text x="48" y="248" fill="#6C7182" font-family="system-ui,sans-serif" font-size="11" letter-spacing="0.2em">RUNTIME</text>
  <rect x="180" y="264" width="600" height="100" rx="16" stroke="#CCFF01" stroke-width="1.5" fill="#12131A"/>
  <text x="480" y="304" fill="#E7E8EE" font-family="system-ui,sans-serif" font-size="18" font-weight="600" text-anchor="middle">GATEWAY</text>
  <rect x="240" y="318" width="100" height="28" rx="14" fill="rgba(124,92,255,0.15)" stroke="#23252F"/>
  <text x="290" y="337" fill="#9BA0AE" font-family="system-ui,sans-serif" font-size="11" text-anchor="middle">Sessions</text>
  <rect x="360" y="318" width="100" height="28" rx="14" fill="rgba(124,92,255,0.15)" stroke="#23252F"/>
  <text x="410" y="337" fill="#9BA0AE" font-family="system-ui,sans-serif" font-size="11" text-anchor="middle">Approvals</text>
  <rect x="480" y="318" width="100" height="28" rx="14" fill="rgba(124,92,255,0.15)" stroke="#23252F"/>
  <text x="530" y="337" fill="#9BA0AE" font-family="system-ui,sans-serif" font-size="11" text-anchor="middle">Scheduler</text>
  <rect x="600" y="318" width="100" height="28" rx="14" fill="rgba(232,255,102,0.12)" stroke="#E8FF66" stroke-opacity="0.4"/>
  <text x="650" y="337" fill="#E8FF66" font-family="system-ui,sans-serif" font-size="11" text-anchor="middle">Budgets</text>
  <path d="M360 364 L360 420" stroke="url(#violet)" stroke-width="2" opacity="0.6"/>
  <path d="M600 364 L600 420" stroke="url(#violet)" stroke-width="2" opacity="0.6"/>
  <text x="48" y="448" fill="#6C7182" font-family="system-ui,sans-serif" font-size="11" letter-spacing="0.2em">EXECUTION</text>
  <rect x="120" y="464" width="340" height="96" rx="14" stroke="#23252F" fill="#12131A"/>
  <text x="290" y="500" fill="#E7E8EE" font-family="system-ui,sans-serif" font-size="15" font-weight="600" text-anchor="middle">BudgetAI Router</text>
  <text x="290" y="528" fill="#6C7182" font-family="system-ui,sans-serif" font-size="11" text-anchor="middle">OpenRouter · OpenAI · Anthropic · Ollama</text>
  <rect x="500" y="464" width="340" height="96" rx="14" stroke="#23252F" fill="#12131A"/>
  <text x="670" y="500" fill="#E7E8EE" font-family="system-ui,sans-serif" font-size="15" font-weight="600" text-anchor="middle">Tools + Sandbox</text>
  <text x="670" y="528" fill="#6C7182" font-family="system-ui,sans-serif" font-size="11" text-anchor="middle">Policy · Approvals · Verify</text>
</svg>
